<svg width="130" height="111" viewBox="0 0 130 111" fill="none" xmlns="http://www.w3.org/2000/svg">
<path d="M67 99C90.7483 99 110 79.7482 110 56C110 32.2518 90.7483 13 67 13C43.2518 13 24 32.2518 24 56C24 79.7482 43.2518 99 67 99Z" fill="#C4DBF7"/>
<path d="M54.34 48.0086C48.58 48.0086 43.9 43.3133 43.9 37.5344C43.9 31.6953 48.58 27 54.34 27C60.1 27 64.78 31.6953 64.78 37.4742C64.84 43.2531 60.16 48.0086 54.34 48.0086Z" fill="#1F64FF"/>
<path d="M65.3528 75.9984C65.5516 75.9994 65.732 75.8826 65.8125 75.7009L70 66.2482L76.36 52.5836C76.66 51.8612 77.5 51.5602 78.22 51.9214C78.94 52.2224 79.24 53.0651 78.88 53.7875L69.062 75.3531C68.9112 75.6841 69.1532 76.0602 69.517 76.0602H96.5C96.7761 76.0602 96.9961 75.8369 96.9785 75.5614C96.9026 74.3735 96.5587 71.0181 95 65C93.5 59.2084 92.5 51.9214 83.26 43.0725C80.4706 40.4011 73.5 34 70 41.5C64.5 50.9583 64.5 50.9583 58.78 61.1315C58.7261 61.2127 58.6048 61.2062 58.5597 61.1198L53.26 50.9583C52 48.5504 49.06 47.6475 46.72 48.9116C44.32 50.1757 43.42 53.0651 44.68 55.473L49.8758 65.5063C50.0496 65.8419 49.8026 66.2416 49.4247 66.2362L41.86 66.1278C39.16 66.1278 37 68.2949 37 71.0037C37 73.7126 39.16 75.8796 41.86 75.8796L65.3528 75.9984Z" fill="#1F64FF"/>
<path d="M120.183 65.8802H129" stroke="#1F64FF" stroke-width="1.5" stroke-miterlimit="10" stroke-linecap="round" stroke-linejoin="round"/>
<path d="M1.28174 25.9648H10.0993" stroke="#1F64FF" stroke-width="1.5" stroke-miterlimit="10" stroke-linecap="round" stroke-linejoin="round"/>
<path d="M72 109H76.9997" stroke="#1F64FF" stroke-width="1.5" stroke-miterlimit="10" stroke-linecap="round" stroke-linejoin="round"/>
<path d="M5 79H10.0906" stroke="#1F64FF" stroke-width="1.5" stroke-miterlimit="10" stroke-linecap="round" stroke-linejoin="round"/>
<path d="M30.2798 6.92252L35.9158 1.33801" stroke="#1F64FF" stroke-width="1.5" stroke-miterlimit="10" stroke-linecap="round" stroke-linejoin="round"/>
<path d="M35.9158 6.92252L30.2798 1.33801" stroke="#1F64FF" stroke-width="1.5" stroke-miterlimit="10" stroke-linecap="round" stroke-linejoin="round"/>
<path d="M112.365 97.5563L117.91 91.9718" stroke="#1F64FF" stroke-width="1.5" stroke-miterlimit="10" stroke-linecap="round" stroke-linejoin="round"/>
<path d="M117.91 97.5563L112.365 91.9718" stroke="#1F64FF" stroke-width="1.5" stroke-miterlimit="10" stroke-linecap="round" stroke-linejoin="round"/>
<path d="M101.002 14.0634L105.093 9.94373" stroke="#1F64FF" stroke-width="1.5" stroke-miterlimit="10" stroke-linecap="round" stroke-linejoin="round"/>
<path d="M105.093 14.0634L101.002 9.94373" stroke="#1F64FF" stroke-width="1.5" stroke-miterlimit="10" stroke-linecap="round" stroke-linejoin="round"/>
<path d="M23.0073 107.444L25.3708 109.824" stroke="#1F64FF" stroke-width="1.5" stroke-miterlimit="10" stroke-linecap="round" stroke-linejoin="round"/>
<path d="M23.0073 109.824L25.3708 107.444" stroke="#1F64FF" stroke-width="1.5" stroke-miterlimit="10" stroke-linecap="round" stroke-linejoin="round"/>
</svg>
