<svg width="17" height="17" viewBox="0 0 17 17" fill="none" xmlns="http://www.w3.org/2000/svg">
<path d="M15.064 16.224C15.704 15.216 16.184 14.216 16.504 13.224C16.808 12.216 16.96 11.216 16.96 10.224C16.96 8.51198 16.512 6.87198 15.616 5.30398C14.72 3.71998 13.4 2.26398 11.656 0.935983L9.304 2.32798C9.112 2.45598 8.976 2.59998 8.896 2.75998C8.8 2.90398 8.752 3.05598 8.752 3.21598C8.752 3.39198 8.792 3.55998 8.872 3.71998C8.952 3.87998 9.048 4.01598 9.16 4.12798C9.336 4.31998 9.536 4.55998 9.76 4.84798C9.968 5.11998 10.168 5.44798 10.36 5.83198C10.552 6.19998 10.72 6.61598 10.864 7.07998C10.992 7.52798 11.056 8.01598 11.056 8.54398C11.056 9.11998 10.96 9.73598 10.768 10.392C10.56 11.048 10.224 11.752 9.76 12.504C9.6 12.76 9.52 13.016 9.52 13.272C9.52 13.56 9.616 13.816 9.808 14.04C10 14.264 10.264 14.44 10.6 14.568L15.064 16.224ZM6.472 16.224C7.112 15.216 7.592 14.216 7.912 13.224C8.216 12.216 8.368 11.216 8.368 10.224C8.368 8.51198 7.92 6.87198 7.024 5.30398C6.128 3.71998 4.808 2.26398 3.064 0.935983L0.711999 2.32798C0.519999 2.45598 0.383999 2.59998 0.303999 2.75998C0.207999 2.90398 0.159999 3.05598 0.159999 3.21598C0.159999 3.39198 0.199999 3.55998 0.279999 3.71998C0.359999 3.87998 0.455999 4.01598 0.568 4.12798C0.743999 4.31998 0.943999 4.55998 1.168 4.84798C1.376 5.11998 1.576 5.44798 1.768 5.83198C1.96 6.19998 2.128 6.61598 2.272 7.07998C2.4 7.52798 2.464 8.01598 2.464 8.54398C2.464 9.11998 2.368 9.73598 2.176 10.392C1.968 11.048 1.632 11.752 1.168 12.504C1.008 12.76 0.927999 13.016 0.927999 13.272C0.927999 13.56 1.024 13.816 1.216 14.04C1.408 14.264 1.672 14.44 2.008 14.568L6.472 16.224Z" fill="#090949"/>
</svg>
