<svg width="130" height="111" viewBox="0 0 130 111" fill="none" xmlns="http://www.w3.org/2000/svg">
<path d="M63 100C86.7483 100 106 80.7482 106 57C106 33.2518 86.7483 14 63 14C39.2518 14 20 33.2518 20 57C20 80.7482 39.2518 100 63 100Z" fill="#C4DBF7"/>
<path d="M41.1022 39.8132H34.4201H27.7381C25.4034 39.8132 23.5518 41.6649 23.5518 43.9995V59.1348C23.5518 61.4695 25.4034 63.3211 27.7381 63.3211H28.7847V85.3799C28.7847 87.1511 30.2338 88.6002 32.0049 88.6002H36.9158C38.687 88.6002 40.1361 87.1511 40.1361 85.3799V63.3211H41.1827C43.5174 63.3211 45.369 61.4695 45.369 59.1348V43.9995C45.2885 41.7454 43.4369 39.8132 41.1022 39.8132Z" fill="#1F64FF"/>
<path d="M30.878 36.9955C31.9246 37.6395 33.1322 38.0421 34.4203 38.0421C35.7084 38.0421 36.916 37.6395 37.9626 36.9955C39.7337 35.8684 40.9413 33.8557 40.9413 31.521C40.9413 27.8982 38.0431 25 34.4203 25C30.7975 25 27.8992 27.8982 27.8992 31.521C27.8992 33.8557 29.1068 35.8684 30.878 36.9955Z" fill="#1F64FF"/>
<path d="M64.2078 39.8132H57.5258H50.8438C48.5091 39.8132 46.6574 41.6649 46.6574 43.9995V59.1348C46.6574 61.4695 48.5091 63.3211 50.8438 63.3211H51.8903V85.3799C51.8903 87.1511 53.3395 88.6002 55.1106 88.6002H60.0215C61.7926 88.6002 63.2418 87.1511 63.2418 85.3799V63.3211H64.2883C66.623 63.3211 68.4747 61.4695 68.4747 59.1348V43.9995C68.3942 41.7454 66.5425 39.8132 64.2078 39.8132Z" fill="#1F64FF"/>
<path d="M53.9832 36.9955C55.0298 37.6395 56.2374 38.0421 57.5255 38.0421C58.8136 38.0421 60.0212 37.6395 61.0678 36.9955C62.8389 35.8684 64.0465 33.8557 64.0465 31.521C64.0465 27.8982 61.1483 25 57.5255 25C53.9027 25 51.0045 27.8982 51.0045 31.521C51.0045 33.8557 52.2121 35.8684 53.9832 36.9955Z" fill="#1F64FF"/>
<path d="M98.1811 39.8132H91.4991H84.817C82.4823 39.8132 80.6307 41.6649 80.6307 43.9995V59.1348C80.6307 61.4695 82.4823 63.3211 84.817 63.3211H85.8636V85.3799C85.8636 87.1511 87.3127 88.6002 89.0839 88.6002H93.9948C95.7659 88.6002 97.215 87.1511 97.215 85.3799V63.3211H98.2616C100.596 63.3211 102.448 61.4695 102.448 59.1348V43.9995C102.367 41.7454 100.516 39.8132 98.1811 39.8132Z" fill="white" stroke="#1F64FF" stroke-miterlimit="10"/>
<path d="M87.9569 36.9955C89.0035 37.6395 90.2111 38.0421 91.4992 38.0421C92.7873 38.0421 93.9949 37.6395 95.0415 36.9955C96.8126 35.8684 98.0202 33.8557 98.0202 31.521C98.0202 27.8982 95.122 25 91.4992 25C87.8764 25 84.9781 27.8982 84.9781 31.521C84.9781 33.8557 86.1857 35.8684 87.9569 36.9955Z" fill="white" stroke="#1F64FF" stroke-miterlimit="10"/>
<path d="M120.183 65.8802H129" stroke="#1F64FF" stroke-width="1.5" stroke-miterlimit="10" stroke-linecap="round" stroke-linejoin="round"/>
<path d="M1.28174 25.9648H10.0993" stroke="#1F64FF" stroke-width="1.5" stroke-miterlimit="10" stroke-linecap="round" stroke-linejoin="round"/>
<path d="M72 109H76.9997" stroke="#1F64FF" stroke-width="1.5" stroke-miterlimit="10" stroke-linecap="round" stroke-linejoin="round"/>
<path d="M5 79H10.0906" stroke="#1F64FF" stroke-width="1.5" stroke-miterlimit="10" stroke-linecap="round" stroke-linejoin="round"/>
<path d="M30.2798 6.92252L35.9158 1.33801" stroke="#1F64FF" stroke-width="1.5" stroke-miterlimit="10" stroke-linecap="round" stroke-linejoin="round"/>
<path d="M35.9158 6.92252L30.2798 1.33801" stroke="#1F64FF" stroke-width="1.5" stroke-miterlimit="10" stroke-linecap="round" stroke-linejoin="round"/>
<path d="M112.365 97.5563L117.91 91.9718" stroke="#1F64FF" stroke-width="1.5" stroke-miterlimit="10" stroke-linecap="round" stroke-linejoin="round"/>
<path d="M117.91 97.5563L112.365 91.9718" stroke="#1F64FF" stroke-width="1.5" stroke-miterlimit="10" stroke-linecap="round" stroke-linejoin="round"/>
<path d="M101.002 14.0634L105.093 9.94373" stroke="#1F64FF" stroke-width="1.5" stroke-miterlimit="10" stroke-linecap="round" stroke-linejoin="round"/>
<path d="M105.093 14.0634L101.002 9.94373" stroke="#1F64FF" stroke-width="1.5" stroke-miterlimit="10" stroke-linecap="round" stroke-linejoin="round"/>
<path d="M23.0073 107.444L25.3708 109.824" stroke="#1F64FF" stroke-width="1.5" stroke-miterlimit="10" stroke-linecap="round" stroke-linejoin="round"/>
<path d="M23.0073 109.824L25.3708 107.444" stroke="#1F64FF" stroke-width="1.5" stroke-miterlimit="10" stroke-linecap="round" stroke-linejoin="round"/>
</svg>
