<svg width="130" height="111" viewBox="0 0 130 111" fill="none" xmlns="http://www.w3.org/2000/svg">
<path d="M120.183 65.8801H129" stroke="#1F64FF" stroke-width="1.5" stroke-miterlimit="10" stroke-linecap="round" stroke-linejoin="round"/>
<path d="M1.28174 25.9647H10.0993" stroke="#1F64FF" stroke-width="1.5" stroke-miterlimit="10" stroke-linecap="round" stroke-linejoin="round"/>
<path d="M72 109H76.9997" stroke="#1F64FF" stroke-width="1.5" stroke-miterlimit="10" stroke-linecap="round" stroke-linejoin="round"/>
<path d="M5 78.9999H10.0906" stroke="#1F64FF" stroke-width="1.5" stroke-miterlimit="10" stroke-linecap="round" stroke-linejoin="round"/>
<path d="M30.2798 6.9224L35.9158 1.33789" stroke="#1F64FF" stroke-width="1.5" stroke-miterlimit="10" stroke-linecap="round" stroke-linejoin="round"/>
<path d="M35.9158 6.9224L30.2798 1.33789" stroke="#1F64FF" stroke-width="1.5" stroke-miterlimit="10" stroke-linecap="round" stroke-linejoin="round"/>
<path d="M112.365 97.5562L117.91 91.9717" stroke="#1F64FF" stroke-width="1.5" stroke-miterlimit="10" stroke-linecap="round" stroke-linejoin="round"/>
<path d="M117.91 97.5562L112.365 91.9717" stroke="#1F64FF" stroke-width="1.5" stroke-miterlimit="10" stroke-linecap="round" stroke-linejoin="round"/>
<path d="M101.002 14.0633L105.093 9.9436" stroke="#1F64FF" stroke-width="1.5" stroke-miterlimit="10" stroke-linecap="round" stroke-linejoin="round"/>
<path d="M105.093 14.0633L101.002 9.9436" stroke="#1F64FF" stroke-width="1.5" stroke-miterlimit="10" stroke-linecap="round" stroke-linejoin="round"/>
<path d="M23.0073 107.444L25.3708 109.824" stroke="#1F64FF" stroke-width="1.5" stroke-miterlimit="10" stroke-linecap="round" stroke-linejoin="round"/>
<path d="M23.0073 109.824L25.3708 107.444" stroke="#1F64FF" stroke-width="1.5" stroke-miterlimit="10" stroke-linecap="round" stroke-linejoin="round"/>
<path d="M64 99C87.7483 99 107 79.7482 107 56C107 32.2518 87.7483 13 64 13C40.2518 13 21 32.2518 21 56C21 79.7482 40.2518 99 64 99Z" fill="#C4DBF7"/>
<g clip-path="url(#clip0_322_5)">
<path d="M56 74.9H53V38.9C53 37.8 52.1 36.9 51 36.9H39C37.9 36.9 37 37.8 37 38.9V74.9H32C30 74.9 30 74.9 30 76.9C30 78.9 30 78.9 32 78.9H96C98 78.9 98 78.9 98 76.9C98 74.9 98 75 96 74.9H91V60.9C91 59.8 90.1 58.9 89 58.9H77C75.9 58.9 75 59.8 75 60.9V74.9H72V51.9C72 50.8 71.1 49.9 70 49.9H58C56.9 49.9 56 50.8 56 51.9V74.9Z" fill="#1F64FF"/>
<path d="M93 48C93.2 47.6 93.3 47.2 93.1 46.8L90.7 39.7C90.4 38.9 89.5 38.5 88.7 38.7C87.9 39 87.5 39.9 87.7 40.7L88.9 44.2L50.9 25.2C50.1 24.8 49.2 25.1 48.8 25.9C48.4 26.7 48.7 27.6 49.5 28L87.7 47.1L84.1 48.3C83.3 48.6 82.8 49.4 83.1 50.3C83.2 50.7 83.5 51 83.9 51.2C84.3 51.4 84.7 51.4 85.1 51.3L92.2 49C92.5 48.7 92.8 48.4 93 48Z" fill="#1F64FF"/>
</g>
<defs>
<clipPath id="clip0_322_5">
<rect width="68" height="53.9" fill="white" transform="translate(30 25)"/>
</clipPath>
</defs>
</svg>
