<svg width="902" height="626" viewBox="0 0 902 626" fill="none" xmlns="http://www.w3.org/2000/svg">
<g clip-path="url(#clip0_913_332)">
<path d="M421.4 275.9C421.4 397.3 349.2 439.7 260.1 439.7C171 439.7 98.8999 397.4 98.8999 275.9C98.8999 154.4 260.1 0 260.1 0C260.1 0 421.4 154.5 421.4 275.9Z" fill="#AAB2C8" fill-opacity="0.2"/>
<path d="M254.3 421.2L255.9 319.6L324.6 193.8L256.2 303.6L256.9 257.9L304.3 167L257.1 245.8L258.4 163.6L309.2 91.2L258.7 150.7L259.5 0L254.2 199.5L254.7 191.3L203.1 112.4L253.8 207.1L249 298.9L248.9 296.5L189.4 213.4L248.7 305.1L248.1 316.5L248 316.7L248.1 317.7L235.9 550.6H252.2L254.1 430.3L313.2 338.8L254.3 421.2Z" fill="#000022"/>
<path d="M901.2 325.7C901.2 425.1 842.1 459.8 769.2 459.8C696.3 459.8 637.2 425.1 637.2 325.7C637.2 226.3 769.2 99.7998 769.2 99.7998C769.2 99.7998 901.2 226.3 901.2 325.7Z" fill="#AAB2C8" fill-opacity="0.2"/>
<path d="M764.4 444.6L765.7 361.4L822 258.5L766 348.3L766.6 310.9L805.3 236.5L766.7 301L767.8 233.8L809.3 174.5L768 223.2L768.7 99.7998L764.4 263.1L764.7 256.4L722.5 191.8L764.1 269.3L760.1 344.5L760 342.5L711.3 274.5L759.9 349.5L759.4 358.9L759.3 359.1V359.8L749.3 550.5H762.7L764.3 452L812.7 377.1L764.4 444.6Z" fill="#000022"/>
<path d="M446 569.7C692.319 569.7 892 559.627 892 547.2C892 534.774 692.319 524.7 446 524.7C199.681 524.7 0 534.774 0 547.2C0 559.627 199.681 569.7 446 569.7Z" fill="#000022"/>
<path d="M717.7 588.4C759.894 588.4 794.1 586.654 794.1 584.5C794.1 582.346 759.894 580.6 717.7 580.6C675.505 580.6 641.3 582.346 641.3 584.5C641.3 586.654 675.505 588.4 717.7 588.4Z" fill="#000022"/>
<path d="M441.3 625.6C483.494 625.6 517.7 623.854 517.7 621.7C517.7 619.546 483.494 617.8 441.3 617.8C399.105 617.8 364.9 619.546 364.9 621.7C364.9 623.854 399.105 625.6 441.3 625.6Z" fill="#000022"/>
<path d="M231.6 599.3C327.974 599.3 406.1 595.36 406.1 590.5C406.1 585.64 327.974 581.7 231.6 581.7C135.226 581.7 57.1001 585.64 57.1001 590.5C57.1001 595.36 135.226 599.3 231.6 599.3Z" fill="#000022"/>
<path d="M78.1001 518.9C113.17 518.9 141.6 490.47 141.6 455.4C141.6 420.33 113.17 391.9 78.1001 391.9C43.03 391.9 14.6001 420.33 14.6001 455.4C14.6001 490.47 43.03 518.9 78.1001 518.9Z" fill="#000022"/>
<path d="M48.5532 504.896L48.1455 539.492L67.4436 539.72L67.8512 505.123L48.5532 504.896Z" fill="#000022"/>
<path d="M87.0976 505.351L86.6899 539.947L105.988 540.175L106.396 505.578L87.0976 505.351Z" fill="#2F2E41"/>
<path d="M80.3036 540.29C80.3427 536.977 73.1668 534.206 64.2759 534.101C55.385 533.996 48.1459 536.597 48.1068 539.911C48.0678 543.224 55.2436 545.995 64.1345 546.1C73.0254 546.205 80.2646 543.604 80.3036 540.29Z" fill="#000022"/>
<path d="M118.862 539.95C118.901 536.637 111.725 533.866 102.834 533.761C93.9432 533.656 86.704 536.258 86.6649 539.571C86.6259 542.884 93.8018 545.655 102.693 545.76C111.584 545.865 118.823 543.264 118.862 539.95Z" fill="#2F2E41"/>
<path d="M79.9002 461C91.8848 461 101.6 451.284 101.6 439.3C101.6 427.315 91.8848 417.6 79.9002 417.6C67.9156 417.6 58.2002 427.315 58.2002 439.3C58.2002 451.284 67.9156 461 79.9002 461Z" fill="white"/>
<path d="M79.9002 446.5C83.8766 446.5 87.1002 443.276 87.1002 439.3C87.1002 435.323 83.8766 432.1 79.9002 432.1C75.9237 432.1 72.7002 435.323 72.7002 439.3C72.7002 443.276 75.9237 446.5 79.9002 446.5Z" fill="#3F3D56"/>
<path d="M175 490.8C175 535.1 148.7 550.6 116.2 550.6C115.4 550.6 114.7 550.6 113.9 550.6C112.4 550.6 110.9 550.5 109.4 550.4C80.0998 548.3 57.2998 532.1 57.2998 490.9C57.2998 448.3 111.8 394.5 115.9 390.5C116.1 390.3 116.1 390.3 116.1 390.3C116.1 390.3 175 446.6 175 490.8Z" fill="#1F64FF"/>
<path d="M114 543.8L135.5 513.7L114 547.1L113.9 550.6C112.4 550.6 110.9 550.5 109.4 550.4L111.7 506.1V505.8V505.7L111.9 501.5L90.3999 468L112.1 498.3L112.2 499.2L114 465.7L95.4999 431.1L114.2 459.8L116 390.4V390.2V390.4L115.7 445.1L134.1 423.4L115.6 449.8L115.1 479.8L132.3 451L115 484.3L114.7 501L139.7 461L114.6 506.9L114 543.8Z" fill="#000022"/>
<path d="M573 518.2C608.07 518.2 636.5 489.77 636.5 454.7C636.5 419.63 608.07 391.2 573 391.2C537.93 391.2 509.5 419.63 509.5 454.7C509.5 489.77 537.93 518.2 573 518.2Z" fill="#000022"/>
<path d="M578.432 505.222L559.983 510.893L570.148 543.967L588.597 538.296L578.432 505.222Z" fill="#2F2E41"/>
<path d="M615.315 493.82L596.866 499.49L607.032 532.564L625.481 526.894L615.315 493.82Z" fill="#2F2E41"/>
<path d="M587.397 545.33C595.897 542.718 601.998 538.032 601.024 534.865C600.051 531.697 592.371 531.247 583.871 533.86C575.372 536.472 569.271 541.158 570.244 544.325C571.218 547.493 578.897 547.943 587.397 545.33Z" fill="#2F2E41"/>
<path d="M624.098 533.217C632.598 530.605 638.699 525.919 637.725 522.752C636.752 519.584 629.072 519.134 620.573 521.746C612.073 524.359 605.972 529.044 606.945 532.212C607.919 535.38 615.599 535.83 624.098 533.217Z" fill="#2F2E41"/>
<path d="M569.8 460.6C581.785 460.6 591.5 450.885 591.5 438.9C591.5 426.916 581.785 417.2 569.8 417.2C557.816 417.2 548.1 426.916 548.1 438.9C548.1 450.885 557.816 460.6 569.8 460.6Z" fill="white"/>
<path d="M569.8 446.1C573.777 446.1 577 442.877 577 438.9C577 434.924 573.777 431.7 569.8 431.7C565.824 431.7 562.6 434.924 562.6 438.9C562.6 442.877 565.824 446.1 569.8 446.1Z" fill="#000022"/>
<path d="M459.7 482.7C459.7 523.4 435.5 537.6 405.7 537.6C405 537.6 404.3 537.6 403.6 537.6C402.2 537.6 400.9 537.5 399.5 537.4C372.6 535.5 351.7 520.6 351.7 482.8C351.7 443.7 401.7 394.3 405.5 390.6C405.6 390.5 405.7 390.4 405.7 390.4C405.7 390.4 459.7 442.1 459.7 482.7Z" fill="#1F64FF"/>
<path d="M403.7 531.4L423.4 503.8L403.6 534.4L403.5 537.6C402.1 537.6 400.8 537.5 399.4 537.4L401.5 496.7V496.4V496.3L401.7 492.5L382 461.8L401.9 489.6V490.4L403.5 459.7L386.5 428L403.7 454.3L405.4 390.6V390.4V390.6L405.1 440.8L422 420.9L405 445.1L404.6 472.6L420.4 446.2L404.5 476.7L404.3 492L427.2 455.2L404.2 497.3L403.7 531.4Z" fill="#000022"/>
<path d="M672 499.7C672 544 645.7 559.5 613.2 559.5C612.4 559.5 611.7 559.5 610.9 559.5C609.4 559.5 607.9 559.4 606.4 559.3C577.1 557.2 554.3 541 554.3 499.8C554.3 457.2 608.8 403.4 612.9 399.4C613.1 399.2 613.1 399.2 613.1 399.2C613.1 399.2 672 455.4 672 499.7Z" fill="#1F64FF"/>
<path d="M611 552.7L632.5 522.6L611 556L610.9 559.5C609.4 559.5 607.9 559.4 606.4 559.3L608.7 515V514.7V514.6L608.9 510.4L587.3 477L609 507.3L609.1 508.2L610.9 474.7L592.4 440L611.1 468.7L612.9 399.3V399.1V399.3L612.6 454L631 432.3L612.5 458.7L612 488.7L629.2 459.9L612 493.1L611.7 509.8L636.7 469.8L611.6 515.7L611 552.7Z" fill="#000022"/>
<path d="M576.984 492.767C579.351 487.778 568.406 477.632 552.538 470.106C536.67 462.581 521.888 460.525 519.522 465.515C517.155 470.505 528.1 480.651 543.968 488.176C559.836 495.702 574.618 497.757 576.984 492.767Z" fill="#000022"/>
<path d="M88.0685 486.878C90.123 481.752 78.5734 472.3 62.2717 465.767C45.9701 459.233 31.0894 458.093 29.0349 463.219C26.9804 468.345 38.5301 477.797 54.8317 484.331C71.1334 490.864 86.014 492.004 88.0685 486.878Z" fill="#000022"/>
</g>
<defs>
<clipPath id="clip0_913_332">
<rect width="901.2" height="625.6" fill="white"/>
</clipPath>
</defs>
</svg>
