<svg width="130" height="111" viewBox="0 0 130 111" fill="none" xmlns="http://www.w3.org/2000/svg">
<path d="M119.901 65.5422H128.718" stroke="#1F64FF" stroke-width="1.5" stroke-miterlimit="10" stroke-linecap="round" stroke-linejoin="round"/>
<path d="M1 25.6268H9.81759" stroke="#1F64FF" stroke-width="1.5" stroke-miterlimit="10" stroke-linecap="round" stroke-linejoin="round"/>
<path d="M71.7183 108.662H76.7179" stroke="#1F64FF" stroke-width="1.5" stroke-miterlimit="10" stroke-linecap="round" stroke-linejoin="round"/>
<path d="M4.71826 78.662H9.80883" stroke="#1F64FF" stroke-width="1.5" stroke-miterlimit="10" stroke-linecap="round" stroke-linejoin="round"/>
<path d="M29.998 6.58451L35.634 1" stroke="#1F64FF" stroke-width="1.5" stroke-miterlimit="10" stroke-linecap="round" stroke-linejoin="round"/>
<path d="M35.634 6.58451L29.998 1" stroke="#1F64FF" stroke-width="1.5" stroke-miterlimit="10" stroke-linecap="round" stroke-linejoin="round"/>
<path d="M112.083 97.2183L117.628 91.6338" stroke="#1F64FF" stroke-width="1.5" stroke-miterlimit="10" stroke-linecap="round" stroke-linejoin="round"/>
<path d="M117.628 97.2183L112.083 91.6338" stroke="#1F64FF" stroke-width="1.5" stroke-miterlimit="10" stroke-linecap="round" stroke-linejoin="round"/>
<path d="M100.72 13.7254L104.811 9.60571" stroke="#1F64FF" stroke-width="1.5" stroke-miterlimit="10" stroke-linecap="round" stroke-linejoin="round"/>
<path d="M104.811 13.7254L100.72 9.60571" stroke="#1F64FF" stroke-width="1.5" stroke-miterlimit="10" stroke-linecap="round" stroke-linejoin="round"/>
<path d="M22.7256 107.106L25.0891 109.486" stroke="#1F64FF" stroke-width="1.5" stroke-miterlimit="10" stroke-linecap="round" stroke-linejoin="round"/>
<path d="M22.7256 109.486L25.0891 107.106" stroke="#1F64FF" stroke-width="1.5" stroke-miterlimit="10" stroke-linecap="round" stroke-linejoin="round"/>
<path d="M63.7183 98.6621C87.4665 98.6621 106.718 79.4104 106.718 55.6621C106.718 31.9139 87.4665 12.6621 63.7183 12.6621C39.97 12.6621 20.7183 31.9139 20.7183 55.6621C20.7183 79.4104 39.97 98.6621 63.7183 98.6621Z" fill="#C4DBF7"/>
<path d="M53.5574 32.8376C51.6988 33.718 49.9984 34.7912 48.4821 36.1118C48.2894 36.2701 48.203 36.5118 48.1714 36.7276C48.1398 36.9434 48.2146 37.2426 48.3469 37.3807L61.1769 52.4556L42.1037 47.2326C41.6462 47.1146 41.0995 47.3736 41.0075 47.8858C39.4856 53.2923 40.0123 59.0671 42.4207 64.1515C47.9367 75.7963 61.9805 80.858 73.6791 75.3166C85.3777 69.7752 90.3836 55.7568 84.8417 44.0573C79.2998 32.3578 65.3107 27.2702 53.5574 32.8376Z" fill="#1F64FF"/>
<path d="M43.5592 36.034C41.5654 38.1833 40.0261 40.5859 38.9415 43.2416L52.6141 46.6719L43.5592 36.034Z" fill="white" stroke="#1F64FF" stroke-miterlimit="10" stroke-linecap="round" stroke-linejoin="round"/>
</svg>
