<svg width="130" height="111" viewBox="0 0 130 111" fill="none" xmlns="http://www.w3.org/2000/svg">
<path d="M64 99C87.7483 99 107 79.7482 107 56C107 32.2518 87.7483 13 64 13C40.2518 13 21 32.2518 21 56C21 79.7482 40.2518 99 64 99Z" fill="#C4DBF7"/>
<path d="M72.9 44.7C72.6073 44.6024 72.2193 44.6953 71.9219 44.8857C71.9073 44.8951 71.8937 44.9061 71.881 44.9181C69.6828 47.0063 66.6914 48.1 63.7 48.1C60.7086 48.1 57.7173 47.0063 55.519 44.9181C55.5064 44.9061 55.4928 44.8951 55.4781 44.8857C55.1808 44.6953 54.7928 44.6024 54.5 44.7C51.0372 45.9166 47.7496 47.834 44.9651 50.2881C44.7607 50.4683 44.89 50.8 45.1625 50.8H82.2375C82.51 50.8 82.6395 50.4681 82.4354 50.2875C79.6619 47.8337 76.4561 45.9166 72.9 44.7Z" fill="#1F64FF"/>
<path d="M94.4 80.4H84.8C85 80.1 85.1 79.7 85.2 79.3L88.3 56.9C88.4 55.9 88.1 54.8 87.5 54C86.8 53.2 85.8 52.8 84.8 52.8H42.6C41.6 52.8 40.6 53.3 39.9 54C39.2 54.8 38.9 55.8 39.1 56.9L42.2 79.3C42.3 79.7 42.4 80.1 42.6 80.4H33C32.4 80.4 32 80.9 32 81.4V85.4C32 85.9 32.4 86.4 33 86.4H94.4C94.9 86.4 95.4 85.9 95.4 85.4V81.4C95.4 80.8 94.9 80.4 94.4 80.4ZM63.7 71.8C60.7 71.8 58.4 69.9 58.4 67.6C58.4 65.3 60.8 63.4 63.7 63.4C66.6 63.4 69 65.3 69 67.6C69 69.9 66.6 71.8 63.7 71.8Z" fill="#1F64FF"/>
<path d="M63.7 44.4C70.1617 44.4 75.4 39.1617 75.4 32.7C75.4 26.2383 70.1617 21 63.7 21C57.2383 21 52 26.2383 52 32.7C52 39.1617 57.2383 44.4 63.7 44.4Z" fill="#1F64FF"/>
<path d="M120.183 65.8801H129" stroke="#1F64FF" stroke-width="1.5" stroke-miterlimit="10" stroke-linecap="round" stroke-linejoin="round"/>
<path d="M1.28174 25.9647H10.0993" stroke="#1F64FF" stroke-width="1.5" stroke-miterlimit="10" stroke-linecap="round" stroke-linejoin="round"/>
<path d="M72 109H76.9997" stroke="#1F64FF" stroke-width="1.5" stroke-miterlimit="10" stroke-linecap="round" stroke-linejoin="round"/>
<path d="M5 78.9999H10.0906" stroke="#1F64FF" stroke-width="1.5" stroke-miterlimit="10" stroke-linecap="round" stroke-linejoin="round"/>
<path d="M30.2798 6.9224L35.9158 1.33789" stroke="#1F64FF" stroke-width="1.5" stroke-miterlimit="10" stroke-linecap="round" stroke-linejoin="round"/>
<path d="M35.9158 6.9224L30.2798 1.33789" stroke="#1F64FF" stroke-width="1.5" stroke-miterlimit="10" stroke-linecap="round" stroke-linejoin="round"/>
<path d="M112.365 97.5562L117.91 91.9717" stroke="#1F64FF" stroke-width="1.5" stroke-miterlimit="10" stroke-linecap="round" stroke-linejoin="round"/>
<path d="M117.91 97.5562L112.365 91.9717" stroke="#1F64FF" stroke-width="1.5" stroke-miterlimit="10" stroke-linecap="round" stroke-linejoin="round"/>
<path d="M101.002 14.0633L105.093 9.9436" stroke="#1F64FF" stroke-width="1.5" stroke-miterlimit="10" stroke-linecap="round" stroke-linejoin="round"/>
<path d="M105.093 14.0633L101.002 9.9436" stroke="#1F64FF" stroke-width="1.5" stroke-miterlimit="10" stroke-linecap="round" stroke-linejoin="round"/>
<path d="M23.0073 107.444L25.3708 109.824" stroke="#1F64FF" stroke-width="1.5" stroke-miterlimit="10" stroke-linecap="round" stroke-linejoin="round"/>
<path d="M23.0073 109.824L25.3708 107.444" stroke="#1F64FF" stroke-width="1.5" stroke-miterlimit="10" stroke-linecap="round" stroke-linejoin="round"/>
</svg>
