<svg width="21" height="22" viewBox="0 0 21 22" fill="none" xmlns="http://www.w3.org/2000/svg">
<g clip-path="url(#clip0_1_569)">
<path d="M10.6705 13.833C11.4662 13.833 12.2292 13.5169 12.7919 12.9543C13.3545 12.3917 13.6705 11.6287 13.6705 10.833C13.6705 10.0374 13.3545 9.2743 12.7919 8.71169C12.2292 8.14908 11.4662 7.83301 10.6705 7.83301C9.87488 7.83301 9.11182 8.14908 8.54921 8.71169C7.9866 9.2743 7.67053 10.0374 7.67053 10.833C7.67053 11.6287 7.9866 12.3917 8.54921 12.9543C9.11182 13.5169 9.87488 13.833 10.6705 13.833Z" fill="#788BA5"/>
<path fill-rule="evenodd" clip-rule="evenodd" d="M10.6705 4.83301C8.87055 4.83301 7.19555 5.80001 5.89755 6.84201C4.58055 7.89801 3.54055 9.12201 2.99455 9.81801C2.52355 10.418 2.52355 11.248 2.99455 11.848C3.54055 12.544 4.58055 13.768 5.89755 14.824C7.19555 15.866 8.87055 16.833 10.6705 16.833C12.4705 16.833 14.1455 15.866 15.4435 14.824C16.7605 13.768 17.8005 12.544 18.3465 11.848C18.8175 11.248 18.8175 10.418 18.3465 9.81801C17.8005 9.12201 16.7605 7.89801 15.4435 6.84201C14.1455 5.80001 12.4705 4.83301 10.6705 4.83301ZM4.17355 10.745C4.68555 10.093 5.64555 8.96701 6.83655 8.01201C8.04455 7.04201 9.38455 6.33301 10.6705 6.33301C11.9565 6.33301 13.2965 7.04201 14.5045 8.01201C15.6955 8.96701 16.6545 10.092 17.1675 10.745C17.1879 10.7699 17.1991 10.8009 17.1995 10.833C17.1991 10.8651 17.1879 10.8961 17.1675 10.921C16.6555 11.574 15.6955 12.699 14.5045 13.654C13.2965 14.624 11.9565 15.333 10.6705 15.333C9.38455 15.333 8.04455 14.624 6.83655 13.654C5.64655 12.699 4.68655 11.574 4.17355 10.922C4.15302 10.8969 4.14173 10.8655 4.14155 10.833C4.14155 10.807 4.14955 10.776 4.17355 10.745Z" fill="#788BA5"/>
</g>
<defs>
<clipPath id="clip0_1_569">
<rect width="20" height="20" fill="white" transform="translate(0.670532 0.833008)"/>
</clipPath>
</defs>
</svg>
