<svg width="17" height="17" viewBox="0 0 17 17" fill="none" xmlns="http://www.w3.org/2000/svg">
<path d="M1.93606 16.224C1.29606 15.216 0.816061 14.216 0.496061 13.224C0.192061 12.216 0.0400611 11.216 0.0400611 10.224C0.0400611 8.51203 0.488061 6.87203 1.38406 5.30403C2.28006 3.72003 3.60006 2.26403 5.34406 0.936028L7.69606 2.32803C7.88806 2.45603 8.02406 2.60003 8.10406 2.76003C8.20006 2.90403 8.24806 3.05603 8.24806 3.21603C8.24806 3.39203 8.20806 3.56003 8.12806 3.72003C8.04806 3.88003 7.95206 4.01603 7.84006 4.12803C7.66406 4.32003 7.46406 4.56003 7.24006 4.84803C7.03206 5.12003 6.83206 5.44803 6.64006 5.83203C6.44806 6.20003 6.28006 6.61603 6.13606 7.08003C6.00806 7.52803 5.94406 8.01603 5.94406 8.54403C5.94406 9.12003 6.04006 9.73603 6.23206 10.392C6.44006 11.048 6.77606 11.752 7.24006 12.504C7.40006 12.76 7.48006 13.016 7.48006 13.272C7.48006 13.56 7.38406 13.816 7.19206 14.04C7.00006 14.264 6.73606 14.44 6.40006 14.568L1.93606 16.224ZM10.5281 16.224C9.88806 15.216 9.40806 14.216 9.08806 13.224C8.78406 12.216 8.63206 11.216 8.63206 10.224C8.63206 8.51203 9.08006 6.87203 9.97606 5.30403C10.8721 3.72003 12.1921 2.26403 13.9361 0.936028L16.2881 2.32803C16.4801 2.45603 16.6161 2.60003 16.6961 2.76003C16.7921 2.90403 16.8401 3.05603 16.8401 3.21603C16.8401 3.39203 16.8001 3.56003 16.7201 3.72003C16.6401 3.88003 16.5441 4.01603 16.4321 4.12803C16.2561 4.32003 16.0561 4.56003 15.8321 4.84803C15.6241 5.12003 15.4241 5.44803 15.2321 5.83203C15.0401 6.20003 14.8721 6.61603 14.7281 7.08003C14.6001 7.52803 14.5361 8.01603 14.5361 8.54403C14.5361 9.12003 14.6321 9.73603 14.8241 10.392C15.0321 11.048 15.3681 11.752 15.8321 12.504C15.9921 12.76 16.0721 13.016 16.0721 13.272C16.0721 13.56 15.9761 13.816 15.7841 14.04C15.5921 14.264 15.3281 14.44 14.9921 14.568L10.5281 16.224Z" fill="#090949"/>
</svg>
