<svg width="41" height="41" viewBox="0 0 41 41" fill="none" xmlns="http://www.w3.org/2000/svg">
<rect x="0.670532" y="0.843018" width="40" height="40" rx="20" fill="#F6F8FB"/>
<g clip-path="url(#clip0_1_523)">
<path d="M20.6705 12.843C20.4716 12.843 20.2809 12.922 20.1402 13.0627C19.9996 13.2033 19.9205 13.3941 19.9205 13.593C19.9205 13.7919 19.9996 13.9827 20.1402 14.1233C20.2809 14.264 20.4716 14.343 20.6705 14.343C22.3944 14.343 24.0477 15.0278 25.2667 16.2468C26.4857 17.4658 27.1705 19.1191 27.1705 20.843C27.1705 22.5669 26.4857 24.2202 25.2667 25.4392C24.0477 26.6582 22.3944 27.343 20.6705 27.343C20.4716 27.343 20.2809 27.422 20.1402 27.5627C19.9996 27.7033 19.9205 27.8941 19.9205 28.093C19.9205 28.2919 19.9996 28.4827 20.1402 28.6233C20.2809 28.764 20.4716 28.843 20.6705 28.843C22.7923 28.843 24.8271 28.0002 26.3274 26.4999C27.8277 24.9996 28.6705 22.9647 28.6705 20.843C28.6705 18.7213 27.8277 16.6865 26.3274 15.1862C24.8271 13.6859 22.7923 12.843 20.6705 12.843Z" fill="#788BA5"/>
<path d="M13.4205 20.093C13.2216 20.093 13.0309 20.172 12.8902 20.3127C12.7495 20.4533 12.6705 20.6441 12.6705 20.843C12.6705 21.0419 12.7495 21.2327 12.8902 21.3733C13.0309 21.514 13.2216 21.593 13.4205 21.593H20.1105L18.3905 23.313C18.3168 23.3816 18.2577 23.4644 18.2168 23.5564C18.1758 23.6484 18.1537 23.7478 18.1519 23.8485C18.1502 23.9492 18.1687 24.0492 18.2064 24.1426C18.2441 24.236 18.3003 24.3208 18.3715 24.392C18.4427 24.4632 18.5275 24.5194 18.6209 24.5571C18.7143 24.5948 18.8144 24.6134 18.9151 24.6116C19.0158 24.6098 19.1151 24.5878 19.2071 24.5468C19.2991 24.5058 19.3819 24.4467 19.4505 24.373L22.4505 21.373C22.591 21.2324 22.6699 21.0417 22.6699 20.843C22.6699 20.6442 22.591 20.4536 22.4505 20.313L19.4505 17.313C19.3084 17.1805 19.1203 17.1084 18.926 17.1118C18.7317 17.1152 18.5463 17.194 18.4089 17.3314C18.2715 17.4688 18.1928 17.6542 18.1894 17.8485C18.1859 18.0428 18.2581 18.2308 18.3905 18.373L20.1105 20.093H13.4205Z" fill="#788BA5"/>
</g>
<defs>
<clipPath id="clip0_1_523">
<rect width="20" height="20" fill="white" transform="translate(10.6705 10.843)"/>
</clipPath>
</defs>
</svg>
